<svg width="20" height="13" viewBox="0 0 20 13" fill="none" xmlns="http://www.w3.org/2000/svg">
<path d="M6.72656 8.97656C6.72656 8.57552 6.58333 8.26302 6.29688 8.03906C6.01562 7.8151 5.51823 7.58333 4.80469 7.34375C4.09115 7.10417 3.50781 6.8724 3.05469 6.64844C1.58073 5.92448 0.84375 4.92969 0.84375 3.66406C0.84375 3.03385 1.02604 2.47917 1.39062 2C1.76042 1.51562 2.28125 1.14062 2.95312 0.875C3.625 0.604167 4.38021 0.46875 5.21875 0.46875C6.03646 0.46875 6.76823 0.614583 7.41406 0.90625C8.0651 1.19792 8.57031 1.61458 8.92969 2.15625C9.28906 2.69271 9.46875 3.30729 9.46875 4H6.73438C6.73438 3.53646 6.59115 3.17708 6.30469 2.92188C6.02344 2.66667 5.64062 2.53906 5.15625 2.53906C4.66667 2.53906 4.27865 2.64844 3.99219 2.86719C3.71094 3.08073 3.57031 3.35417 3.57031 3.6875C3.57031 3.97917 3.72656 4.24479 4.03906 4.48438C4.35156 4.71875 4.90104 4.96354 5.6875 5.21875C6.47396 5.46875 7.11979 5.73958 7.625 6.03125C8.85417 6.73958 9.46875 7.71615 9.46875 8.96094C9.46875 9.95573 9.09375 10.737 8.34375 11.3047C7.59375 11.8724 6.5651 12.1562 5.25781 12.1562C4.33594 12.1562 3.5 11.9922 2.75 11.6641C2.00521 11.3307 1.44271 10.8776 1.0625 10.3047C0.6875 9.72656 0.5 9.0625 0.5 8.3125H3.25C3.25 8.92188 3.40625 9.3724 3.71875 9.66406C4.03646 9.95052 4.54948 10.0938 5.25781 10.0938C5.71094 10.0938 6.06771 9.9974 6.32812 9.80469C6.59375 9.60677 6.72656 9.33073 6.72656 8.97656ZM19.8047 2.74219H16.3906V12H13.6484V2.74219H10.2969V0.625H19.8047V2.74219Z" fill="#A065A4"/>
</svg>
